<svg width="396" height="124" viewBox="0 0 396 124" fill="none" xmlns="http://www.w3.org/2000/svg">
<path fill-rule="evenodd" clip-rule="evenodd" d="M195.779 19.968C199.518 16.2272 205.579 16.2272 209.318 19.968C213.056 23.709 213.056 29.7743 209.318 33.5153L186.525 56.3229C179.981 47.547 180.692 35.0656 188.658 27.0945L195.779 19.968Z" fill="#4F9E91"/>
<path fill-rule="evenodd" clip-rule="evenodd" d="M228.363 71.4259C232.102 75.1666 232.102 81.2321 228.363 84.9729C224.626 88.7139 218.564 88.7139 214.825 84.9729L192.033 62.1655C200.803 55.6172 213.276 56.3283 221.242 64.2994L228.363 71.4259Z" fill="#EBE1C5"/>
<path fill-rule="evenodd" clip-rule="evenodd" d="M176.94 104.032C173.201 107.773 167.14 107.773 163.401 104.032C159.663 100.291 159.663 94.2255 163.401 90.4844L186.194 67.6771C192.738 76.453 192.027 88.9344 184.061 96.9052L176.94 104.032Z" fill="#EBCC6E"/>
<path fill-rule="evenodd" clip-rule="evenodd" d="M144.355 52.5738C140.617 48.8328 140.617 42.7676 144.355 39.0266C148.094 35.2855 154.155 35.2855 157.894 39.0266L180.686 61.8342C171.916 68.3825 159.443 67.6711 151.477 59.7003L144.355 52.5738Z" fill="#ED834E"/>
<path fill-rule="evenodd" clip-rule="evenodd" d="M190.686 101.238C196.198 95.1053 198.76 87.2575 198.372 79.5306L209.318 90.4842C209.345 90.5114 209.373 90.5386 209.4 90.5658V98.3859C209.4 103.676 205.114 107.965 199.827 107.965C195.533 107.965 191.899 105.136 190.686 101.238Z" fill="#ED834E"/>
<path fill-rule="evenodd" clip-rule="evenodd" d="M147.147 66.3287C153.275 71.8451 161.118 74.4089 168.84 74.0199L157.894 84.9734C157.866 85.0006 157.839 85.0281 157.812 85.0554H149.997C144.71 85.0556 140.424 80.7666 140.424 75.4761C140.424 71.1792 143.252 67.5428 147.147 66.3287Z" fill="#4F9E91"/>
<path fill-rule="evenodd" clip-rule="evenodd" d="M225.572 57.6713C219.444 52.1549 211.601 49.5911 203.879 49.9798L214.825 39.0266C214.853 38.9994 214.88 38.9719 214.907 38.9444H222.722C228.01 38.9444 232.296 43.2334 232.296 48.5239C232.296 52.821 229.467 56.4572 225.572 57.6713Z" fill="#EBCC6E"/>
<path fill-rule="evenodd" clip-rule="evenodd" d="M182.033 22.7612C176.521 28.8942 173.959 36.742 174.347 44.4691L163.401 33.5156C163.374 33.4884 163.347 33.4611 163.319 33.4339V25.6138C163.319 20.3233 167.605 16.0342 172.892 16.0342C177.186 16.0342 180.82 18.8639 182.033 22.7612Z" fill="#EBE1C5"/>
<path fill-rule="evenodd" clip-rule="evenodd" d="M172.892 8.24063C163.304 8.24063 155.531 16.0189 155.531 25.6138V28.9928C149.762 27.4846 143.369 28.992 138.848 33.5156C132.068 40.3003 132.068 51.3004 138.848 58.0851L141.236 60.4743C136.091 63.4896 132.636 69.079 132.636 75.4761C132.636 85.071 140.409 92.8493 149.998 92.8493H153.374C151.867 98.6218 153.373 105.019 157.894 109.542C164.674 116.327 175.667 116.327 182.447 109.542L189.569 102.416C195.851 96.1296 198.785 87.7613 198.371 79.5304L209.318 90.4839C216.098 97.2686 227.091 97.2686 233.872 90.4839C240.652 83.6992 240.652 72.699 233.872 65.9146L231.485 63.5257C236.628 60.5104 240.084 54.9209 240.084 48.5239C240.084 38.929 232.309 31.1507 222.722 31.1507H219.345C220.853 25.378 219.346 18.9806 214.825 14.4571C208.045 7.67239 197.053 7.67239 190.272 14.4571L183.151 21.5836C176.868 27.8701 173.934 36.2382 174.348 44.4691L163.402 33.5156C163.374 33.4884 163.347 33.4611 163.32 33.4339V25.6138C163.32 20.3234 167.605 16.0346 172.892 16.0346C177.187 16.0346 180.821 18.8639 182.034 22.7613C182.394 22.3613 182.766 21.9685 183.151 21.5836L187.884 16.8462C184.871 11.6981 179.285 8.24063 172.892 8.24063ZM214.907 38.9446C214.88 38.9718 214.853 38.9993 214.825 39.0266L203.879 49.9798C211.601 49.5911 219.444 52.1547 225.572 57.6713C229.467 56.4572 232.296 52.8208 232.296 48.5239C232.296 43.2334 228.01 38.9446 222.722 38.9446H214.907ZM157.812 85.0554C157.839 85.0279 157.867 85.0004 157.894 84.9732L168.84 74.0196C161.118 74.4086 153.276 71.8448 147.147 66.3287C143.252 67.5428 140.425 71.179 140.425 75.4761C140.425 80.7666 144.711 85.0554 149.998 85.0554H157.812ZM199.827 115.759C193.434 115.759 187.848 112.302 184.835 107.154L189.569 102.416C189.954 102.031 190.326 101.638 190.686 101.238C191.899 105.136 195.533 107.965 199.827 107.965C205.114 107.965 209.4 103.677 209.4 98.3862V90.5661C211.644 92.7816 214.34 94.2621 217.189 95.0069V98.3862C217.189 107.981 209.416 115.759 199.827 115.759ZM209.318 19.9681C205.579 16.2273 199.518 16.2273 195.78 19.9681L188.658 27.0945C180.692 35.0656 179.981 47.547 186.525 56.3229L209.318 33.5153C213.057 29.7743 213.057 23.7091 209.318 19.9681ZM228.363 84.9729C232.102 81.2319 232.102 75.1666 228.363 71.4256L221.242 64.2991C213.276 56.3283 200.803 55.617 192.033 62.1652L214.825 84.9729C218.564 88.7139 224.627 88.7139 228.363 84.9729ZM176.94 104.031C173.201 107.772 167.14 107.772 163.401 104.031C159.663 100.29 159.663 94.2252 163.401 90.4841L186.194 67.6765C192.738 76.4525 192.027 88.9341 184.062 96.9049L176.94 104.031ZM144.356 39.0266C140.617 42.7676 140.617 48.8328 144.356 52.5738L151.478 59.7003C159.443 67.6711 171.916 68.3825 180.687 61.8342L157.894 39.0266C154.155 35.2858 148.094 35.2858 144.356 39.0266Z" fill="#F1F1F1"/>
<path d="M4.12891 43.3725H12.6432V69.847H27.2666V77.0191H4.12891V43.3725Z" fill="#F1F1F1"/>
<path d="M42.7257 77.7413C39.8715 77.7413 37.37 77.2277 35.2214 76.201C33.0727 75.1418 31.4052 73.6978 30.2186 71.8688C29.0642 70.0074 28.4869 67.8736 28.4869 65.4666C28.4869 63.0599 29.0642 60.942 30.2186 59.113C31.4052 57.2516 33.0727 55.8076 35.2214 54.7808C37.37 53.7217 39.8715 53.1922 42.7257 53.1922C45.5799 53.1922 48.0811 53.7217 50.2298 54.7808C52.3784 55.8076 54.03 57.2516 55.1843 59.113C56.371 60.942 56.9642 63.0599 56.9642 65.4666C56.9642 67.8736 56.371 70.0074 55.1843 71.8688C54.03 73.6978 52.3784 75.1418 50.2298 76.201C48.0811 77.2277 45.5799 77.7413 42.7257 77.7413ZM42.7257 71.1466C44.4253 71.1466 45.7722 70.6493 46.7662 69.6546C47.7926 68.6275 48.3055 67.2317 48.3055 65.4666C48.3055 63.7018 47.7926 62.3219 46.7662 61.3272C45.7722 60.3001 44.4253 59.7869 42.7257 59.7869C41.0259 59.7869 39.663 60.3001 38.6369 61.3272C37.6426 62.3219 37.1456 63.7018 37.1456 65.4666C37.1456 67.2317 37.6426 68.6275 38.6369 69.6546C39.663 70.6493 41.0259 71.1466 42.7257 71.1466Z" fill="#F1F1F1"/>
<path d="M72.8672 88.0904C71.3279 88.0904 69.7725 87.9459 68.2012 87.6572C66.6619 87.3683 65.3308 86.9833 64.2086 86.5019V80.6294C66.7419 81.7203 69.6281 82.2659 72.8672 82.2659C75.2082 82.2659 76.8919 81.7845 77.918 80.8219C78.9764 79.8592 79.5055 78.4473 79.5055 76.5859V75.1901C78.5756 75.9923 77.421 76.618 76.042 77.0674C74.695 77.5167 73.2519 77.7413 71.7126 77.7413C69.2755 77.7413 67.1268 77.2277 65.2667 76.201C63.4069 75.1739 61.9476 73.7299 60.8894 71.8688C59.8631 70.0074 59.3502 67.8736 59.3502 65.4666C59.3502 63.0279 59.8631 60.8778 60.8894 59.0167C61.9155 57.1554 63.3586 55.7272 65.2188 54.7325C67.0786 53.7058 69.2114 53.1922 71.6165 53.1922C74.9197 53.1922 77.6454 54.2031 79.794 56.2248V53.9141H87.9718V75.4308C87.9718 79.442 86.7369 82.5549 84.2677 84.7691C81.8306 86.9833 78.0303 88.0904 72.8672 88.0904ZM73.8292 71.1949C75.1441 71.1949 76.3146 70.8579 77.3407 70.184C78.3671 69.5101 79.0885 68.6116 79.5055 67.4884V63.4451C79.0564 62.3219 78.3188 61.4393 77.2927 60.7975C76.2664 60.1238 75.112 59.7869 73.8292 59.7869C72.0976 59.7869 70.7024 60.3001 69.6443 61.3272C68.5858 62.3219 68.0568 63.6856 68.0568 65.4186C68.0568 67.1835 68.5858 68.5955 69.6443 69.6546C70.7024 70.6814 72.0976 71.1949 73.8292 71.1949Z" fill="#F1F1F1"/>
<path d="M104.358 77.7413C101.504 77.7413 99.0027 77.2277 96.8541 76.201C94.7054 75.1418 93.0377 73.6978 91.8513 71.8688C90.6967 70.0074 90.1194 67.8736 90.1194 65.4666C90.1194 63.0599 90.6967 60.942 91.8513 59.113C93.0377 57.2516 94.7054 55.8076 96.8541 54.7808C99.0027 53.7217 101.504 53.1922 104.358 53.1922C107.212 53.1922 109.714 53.7217 111.862 54.7808C114.011 55.8076 115.662 57.2516 116.817 59.113C118.003 60.942 118.597 63.0599 118.597 65.4666C118.597 67.8736 118.003 70.0074 116.817 71.8688C115.662 73.6978 114.011 75.1418 111.862 76.201C109.714 77.2277 107.212 77.7413 104.358 77.7413ZM104.358 71.1466C106.058 71.1466 107.405 70.6493 108.399 69.6546C109.425 68.6275 109.938 67.2317 109.938 65.4666C109.938 63.7018 109.425 62.3219 108.399 61.3272C107.405 60.3001 106.058 59.7869 104.358 59.7869C102.659 59.7869 101.295 60.3001 100.269 61.3272C99.2751 62.3219 98.778 63.7018 98.778 65.4666C98.778 67.2317 99.2751 68.6275 100.269 69.6546C101.295 70.6493 102.659 71.1466 104.358 71.1466Z" fill="#F1F1F1"/>
<path d="M254.388 43.3725H262.903V77.0191H254.388V43.3725Z" fill="#F1F1F1"/>
<path d="M267.214 53.9141H275.392V56.2248C277.539 54.2031 280.266 53.1922 283.568 53.1922C285.974 53.1922 288.108 53.7058 289.966 54.7325C291.828 55.7272 293.269 57.1554 294.295 59.0167C295.322 60.8457 295.836 62.9799 295.836 65.4186C295.836 67.8253 295.322 69.9754 294.295 71.8688C293.269 73.7299 291.828 75.1739 289.966 76.201C288.14 77.2277 286.006 77.7413 283.568 77.7413C282.03 77.7413 280.554 77.5005 279.145 77.0191C277.766 76.57 276.61 75.9441 275.681 75.1419V87.5607H267.214V53.9141ZM281.357 71.1466C283.089 71.1466 284.484 70.6334 285.54 69.6063C286.599 68.5796 287.13 67.1835 287.13 65.4186C287.13 63.6535 286.599 62.2739 285.54 61.2789C284.484 60.2521 283.089 59.7386 281.357 59.7386C280.074 59.7386 278.919 60.0756 277.892 60.7495C276.866 61.3913 276.131 62.2739 275.681 63.3969V67.4884C276.131 68.6116 276.866 69.5101 277.892 70.184C278.919 70.8258 280.074 71.1466 281.357 71.1466Z" fill="#F1F1F1"/>
<path d="M308.457 77.7413C306.598 77.7413 304.659 77.5488 302.638 77.1636C300.618 76.8107 299.012 76.2972 297.827 75.6233V69.4139C299.142 70.184 300.712 70.8258 302.541 71.3394C304.4 71.8205 306.1 72.0613 307.641 72.0613C308.762 72.0613 309.58 71.9809 310.092 71.8205C310.607 71.6601 310.863 71.3394 310.863 70.8579C310.863 70.4727 310.688 70.1678 310.335 69.9433C310.014 69.6867 309.403 69.4298 308.506 69.1731C307.641 68.8844 306.631 68.5796 305.475 68.2585C303.519 67.6808 301.981 67.0872 300.858 66.4775C299.734 65.8677 298.902 65.0976 298.355 64.167C297.811 63.2365 297.539 62.0652 297.539 60.6533C297.539 58.1501 298.517 56.289 300.472 55.0695C302.461 53.8179 305.171 53.1922 308.603 53.1922C310.27 53.1922 312.018 53.3688 313.845 53.7217C315.706 54.0748 317.099 54.5401 318.031 55.1177V61.2309C317.069 60.5891 315.784 60.0594 314.182 59.6424C312.611 59.2251 311.135 59.0167 309.756 59.0167C308.667 59.0167 307.816 59.1289 307.207 59.3534C306.598 59.5462 306.294 59.899 306.294 60.4125C306.294 60.894 306.598 61.263 307.207 61.5196C307.816 61.7763 308.907 62.0973 310.478 62.4823C311.504 62.7392 311.938 62.8513 311.776 62.8192C313.829 63.3648 315.415 63.9746 316.539 64.6485C317.662 65.3224 318.446 66.1246 318.896 67.0552C319.378 67.9536 319.618 69.109 319.618 70.521C319.618 72.7352 318.656 74.5 316.733 75.8158C314.839 77.0994 312.08 77.7413 308.457 77.7413Z" fill="#F1F1F1"/>
<path d="M332.257 77.7413C329.084 77.7413 326.695 76.8587 325.092 75.0939C323.521 73.3287 322.735 71.0024 322.735 68.1143V53.9141H331.201V67.1514C331.201 69.815 332.403 71.1466 334.809 71.1466C335.9 71.1466 336.894 70.89 337.791 70.3765C338.688 69.8629 339.426 69.109 340.002 68.1143V53.9141H348.469V77.0191H340.293V74.5162C339.299 75.575 338.095 76.3773 336.684 76.9229C335.275 77.4685 333.798 77.7413 332.257 77.7413Z" fill="#F1F1F1"/>
<path d="M352.804 53.9141H360.646V56.4173C361.607 55.3905 362.715 54.6042 363.964 54.0586C365.214 53.4809 366.545 53.1922 367.957 53.1922C369.689 53.1922 371.068 53.4489 372.095 53.9624C373.153 54.4759 374.002 55.2461 374.643 56.2728C375.605 55.3102 376.777 54.556 378.156 54.0106C379.535 53.465 380.93 53.1922 382.339 53.1922C385.386 53.1922 387.552 53.9786 388.834 55.5509C390.117 57.0912 390.758 59.3213 390.758 62.2415V77.0191H382.676V63.4451C382.676 62.1615 382.436 61.2309 381.954 60.6533C381.475 60.0756 380.672 59.7869 379.551 59.7869C378.107 59.7869 376.935 60.3001 376.038 61.3272C376.071 61.8725 376.087 62.7071 376.087 63.8301V77.0191H368.005V63.1082C368.005 61.9208 367.798 61.0703 367.38 60.557C366.963 60.0435 366.225 59.7869 365.169 59.7869C363.531 59.7869 362.122 60.7012 360.934 62.5305V77.0191H352.804V53.9141Z" fill="#F1F1F1"/>
</svg>
