<svg width="316" height="99" viewBox="0 0 316 99" fill="none" xmlns="http://www.w3.org/2000/svg">
<path fill-rule="evenodd" clip-rule="evenodd" d="M156.228 15.9422C159.211 12.9556 164.048 12.9556 167.031 15.9422C170.014 18.929 170.014 23.7714 167.031 26.7582L148.843 44.9675C143.621 37.9609 144.188 27.9959 150.545 21.6319L156.228 15.9422Z" fill="#4F9E91"/>
<path fill-rule="evenodd" clip-rule="evenodd" d="M182.229 57.0255C185.213 60.0121 185.213 64.8547 182.229 67.8413C179.247 70.828 174.41 70.828 171.426 67.8413L153.238 49.6321C160.237 44.4041 170.19 44.9718 176.547 51.3358L182.229 57.0255Z" fill="#EBE1C5"/>
<path fill-rule="evenodd" clip-rule="evenodd" d="M141.194 83.0576C138.211 86.0443 133.374 86.0443 130.391 83.0576C127.408 80.0708 127.408 75.2284 130.391 72.2416L148.579 54.0325C153.801 61.0391 153.234 71.0041 146.877 77.3679L141.194 83.0576Z" fill="#EBCC6E"/>
<path fill-rule="evenodd" clip-rule="evenodd" d="M115.193 41.9743C112.209 38.9875 112.209 34.1451 115.193 31.1583C118.176 28.1715 123.013 28.1715 125.996 31.1583L144.184 49.3676C137.186 54.5957 127.232 54.0277 120.876 47.664L115.193 41.9743Z" fill="#ED834E"/>
<path fill-rule="evenodd" clip-rule="evenodd" d="M152.163 80.8275C156.562 75.9308 158.607 69.6652 158.297 63.4962L167.032 72.2414C167.053 72.2631 167.075 72.2849 167.097 72.3066V78.55C167.097 82.7739 163.677 86.198 159.458 86.198C156.031 86.198 153.132 83.9391 152.163 80.8275Z" fill="#ED834E"/>
<path fill-rule="evenodd" clip-rule="evenodd" d="M117.42 52.956C122.311 57.3602 128.569 59.4071 134.731 59.0965L125.996 67.8417C125.974 67.8634 125.952 67.8854 125.931 67.9071H119.695C115.476 67.9073 112.056 64.483 112.056 60.2592C112.056 56.8286 114.312 53.9253 117.42 52.956Z" fill="#4F9E91"/>
<path fill-rule="evenodd" clip-rule="evenodd" d="M180.002 46.044C175.112 41.6398 168.853 39.5929 162.691 39.9032L171.426 31.1583C171.448 31.1366 171.47 31.1146 171.491 31.0927H177.728C181.947 31.0927 185.367 34.517 185.367 38.7409C185.367 42.1716 183.11 45.0747 180.002 46.044Z" fill="#EBCC6E"/>
<path fill-rule="evenodd" clip-rule="evenodd" d="M145.259 18.1723C140.86 23.0687 138.816 29.3343 139.126 35.5036L130.391 26.7584C130.369 26.7367 130.347 26.7149 130.325 26.6932V20.4497C130.325 16.2258 133.745 12.8015 137.964 12.8015C141.391 12.8015 144.291 15.0607 145.259 18.1723Z" fill="#EBE1C5"/>
<path fill-rule="evenodd" clip-rule="evenodd" d="M137.965 6.57922C130.313 6.57922 124.11 12.7893 124.11 20.4498V23.1475C119.507 21.9433 114.406 23.1468 110.798 26.7584C105.388 32.1752 105.388 40.9576 110.798 46.3744L112.703 48.2819C108.598 50.6893 105.841 55.1518 105.841 60.2591C105.841 67.9196 112.044 74.1297 119.695 74.1297H122.39C121.187 78.7384 122.389 83.8459 125.996 87.4572C131.407 92.8741 140.179 92.8741 145.589 87.4572L151.272 81.7678C156.285 76.7487 158.627 70.0675 158.296 63.496L167.032 72.2412C172.442 77.658 181.214 77.658 186.625 72.2412C192.036 66.8244 192.036 58.042 186.625 52.6254L184.72 50.7181C188.824 48.3107 191.582 43.8482 191.582 38.7409C191.582 31.0804 185.378 24.8703 177.728 24.8703H175.033C176.236 20.2614 175.034 15.1539 171.426 11.5423C166.016 6.12554 157.244 6.12554 151.833 11.5423L146.15 17.232C141.137 22.2511 138.796 28.9321 139.126 35.5036L130.391 26.7584C130.369 26.7367 130.348 26.7149 130.326 26.6932V20.4498C130.326 16.2259 133.746 12.8018 137.965 12.8018C141.392 12.8018 144.291 15.0607 145.259 18.1723C145.546 17.853 145.843 17.5394 146.15 17.232L149.928 13.4498C147.523 9.33959 143.066 6.57922 137.965 6.57922ZM171.491 31.0929C171.47 31.1146 171.448 31.1366 171.426 31.1583L162.692 39.9032C168.854 39.5929 175.112 41.6396 180.002 46.044C183.11 45.0747 185.368 42.1714 185.368 38.7409C185.368 34.517 181.947 31.0929 177.728 31.0929H171.491ZM125.931 67.9071C125.953 67.8852 125.974 67.8632 125.996 67.8415L134.731 59.0963C128.569 59.4069 122.311 57.36 117.42 52.956C114.312 53.9253 112.056 56.8284 112.056 60.2591C112.056 64.483 115.476 67.9071 119.695 67.9071H125.931ZM159.458 92.4208C154.357 92.4208 149.899 89.6602 147.495 85.55L151.272 81.7678C151.579 81.4604 151.876 81.1469 152.163 80.8275C153.131 83.9391 156.031 86.1982 159.458 86.1982C163.677 86.1982 167.097 82.7741 167.097 78.5503V72.3068C168.887 74.0757 171.039 75.2576 173.312 75.8523V78.5503C173.312 86.2107 167.11 92.4208 159.458 92.4208ZM167.032 15.9422C164.048 12.9557 159.212 12.9557 156.228 15.9422L150.545 21.6319C144.189 27.9959 143.622 37.9609 148.844 44.9675L167.032 26.7582C170.015 23.7714 170.015 18.929 167.032 15.9422ZM182.229 67.8413C185.213 64.8545 185.213 60.0121 182.229 57.0253L176.547 51.3356C170.19 44.9718 160.237 44.4039 153.238 49.6319L171.426 67.8413C174.41 70.828 179.247 70.828 182.229 67.8413ZM141.194 83.0573C138.211 86.0441 133.374 86.0441 130.391 83.0573C127.408 80.0706 127.408 75.2282 130.391 72.2414L148.579 54.032C153.801 61.0387 153.234 71.0039 146.877 77.3676L141.194 83.0573ZM115.193 31.1583C112.21 34.1451 112.21 38.9875 115.193 41.9743L120.876 47.664C127.233 54.0277 137.186 54.5957 144.184 49.3676L125.996 31.1583C123.013 28.1717 118.176 28.1717 115.193 31.1583Z" fill="#F1F1F1"/>
<path d="M3.2948 34.628H10.089V55.765H21.7582V61.4911H3.2948V34.628Z" fill="#F1F1F1"/>
<path d="M34.0943 62.0676C31.8167 62.0676 29.8205 61.6576 28.1059 60.8379C26.3914 59.9923 25.0607 58.8394 24.1138 57.3791C23.1927 55.893 22.732 54.1894 22.732 52.2677C22.732 50.3462 23.1927 48.6553 24.1138 47.195C25.0607 45.7089 26.3914 44.556 28.1059 43.7363C29.8205 42.8907 31.8167 42.468 34.0943 42.468C36.3718 42.468 38.3678 42.8907 40.0823 43.7363C41.7969 44.556 43.1149 45.7089 44.036 47.195C44.9829 48.6553 45.4563 50.3462 45.4563 52.2677C45.4563 54.1894 44.9829 55.893 44.036 57.3791C43.1149 58.8394 41.7969 59.9923 40.0823 60.8379C38.3678 61.6576 36.3718 62.0676 34.0943 62.0676ZM34.0943 56.8025C35.4505 56.8025 36.5253 56.4055 37.3185 55.6113C38.1375 54.7913 38.5468 53.6769 38.5468 52.2677C38.5468 50.8587 38.1375 49.757 37.3185 48.9628C36.5253 48.1428 35.4505 47.7331 34.0943 47.7331C32.7378 47.7331 31.6503 48.1428 30.8315 48.9628C30.0381 49.757 29.6414 50.8587 29.6414 52.2677C29.6414 53.6769 30.0381 54.7913 30.8315 55.6113C31.6503 56.4055 32.7378 56.8025 34.0943 56.8025Z" fill="#F1F1F1"/>
<path d="M58.1466 70.3302C56.9183 70.3302 55.677 70.2149 54.4232 69.9844C53.1948 69.7537 52.1327 69.4464 51.2371 69.062V64.3735C53.2587 65.2444 55.5618 65.68 58.1466 65.68C60.0146 65.68 61.3582 65.2957 62.177 64.5271C63.0216 63.7586 63.4438 62.6313 63.4438 61.1452V60.0308C62.7017 60.6713 61.7804 61.1708 60.6799 61.5296C59.6051 61.8883 58.4535 62.0676 57.2252 62.0676C55.2804 62.0676 53.5659 61.6576 52.0815 60.8379C50.5974 60.0179 49.4329 58.865 48.5885 57.3791C47.7695 55.893 47.3602 54.1894 47.3602 52.2677C47.3602 50.3206 47.7695 48.6041 48.5885 47.1182C49.4073 45.6321 50.5589 44.4919 52.0433 43.6977C53.5274 42.878 55.2293 42.468 57.1485 42.468C59.7844 42.468 61.9594 43.2751 63.674 44.8892V43.0443H70.1997V60.223C70.1997 63.4254 69.2143 65.9108 67.2439 67.6786C65.2991 69.4464 62.2666 70.3302 58.1466 70.3302ZM58.9142 56.8411C59.9635 56.8411 60.8975 56.572 61.7163 56.034C62.5353 55.496 63.111 54.7786 63.4438 53.8818V50.6538C63.0854 49.757 62.4968 49.0523 61.678 48.5399C60.859 48.0021 59.9379 47.7331 58.9142 47.7331C57.5324 47.7331 56.4191 48.1428 55.5747 48.9628C54.7301 49.757 54.3079 50.8458 54.3079 52.2294C54.3079 53.6384 54.7301 54.7657 55.5747 55.6113C56.4191 56.4311 57.5324 56.8411 58.9142 56.8411Z" fill="#F1F1F1"/>
<path d="M83.2757 62.0676C80.9981 62.0676 79.0021 61.6576 77.2876 60.8379C75.573 59.9923 74.2421 58.8394 73.2954 57.3791C72.3741 55.893 71.9134 54.1894 71.9134 52.2677C71.9134 50.3462 72.3741 48.6553 73.2954 47.195C74.2421 45.7089 75.573 44.556 77.2876 43.7363C79.0021 42.8907 80.9981 42.468 83.2757 42.468C85.5532 42.468 87.5492 42.8907 89.2638 43.7363C90.9783 44.556 92.2963 45.7089 93.2176 47.195C94.1643 48.6553 94.6379 50.3462 94.6379 52.2677C94.6379 54.1894 94.1643 55.893 93.2176 57.3791C92.2963 58.8394 90.9783 59.9923 89.2638 60.8379C87.5492 61.6576 85.5532 62.0676 83.2757 62.0676ZM83.2757 56.8025C84.6319 56.8025 85.7067 56.4055 86.5002 55.6113C87.319 54.7913 87.7285 53.6769 87.7285 52.2677C87.7285 50.8587 87.319 49.757 86.5002 48.9628C85.7067 48.1428 84.6319 47.7331 83.2757 47.7331C81.9194 47.7331 80.8317 48.1428 80.0129 48.9628C79.2195 49.757 78.8229 50.8587 78.8229 52.2677C78.8229 53.6769 79.2195 54.7913 80.0129 55.6113C80.8317 56.4055 81.9194 56.8025 83.2757 56.8025Z" fill="#F1F1F1"/>
<path d="M202.996 34.628H209.792V61.4911H202.996V34.628Z" fill="#F1F1F1"/>
<path d="M213.231 43.0443H219.758V44.8892C221.471 43.2751 223.646 42.468 226.282 42.468C228.201 42.468 229.904 42.878 231.387 43.6977C232.873 44.4919 234.023 45.6321 234.842 47.1182C235.661 48.5784 236.071 50.2823 236.071 52.2294C236.071 54.1508 235.661 55.8674 234.842 57.3791C234.023 58.865 232.873 60.0179 231.387 60.8379C229.93 61.6576 228.227 62.0676 226.282 62.0676C225.054 62.0676 223.876 61.8754 222.752 61.4911C221.651 61.1325 220.729 60.6328 219.988 59.9923V69.9073H213.231V43.0443ZM224.517 56.8025C225.899 56.8025 227.013 56.3928 227.855 55.5728C228.7 54.753 229.124 53.6384 229.124 52.2294C229.124 50.8201 228.7 49.7187 227.855 48.9243C227.013 48.1045 225.899 47.6945 224.517 47.6945C223.494 47.6945 222.571 47.9636 221.752 48.5016C220.933 49.014 220.347 49.7187 219.988 50.6153V53.8818C220.347 54.7786 220.933 55.496 221.752 56.034C222.571 56.5464 223.494 56.8025 224.517 56.8025Z" fill="#F1F1F1"/>
<path d="M246.143 62.0676C244.659 62.0676 243.111 61.914 241.499 61.6064C239.887 61.3247 238.606 60.9147 237.66 60.3767V55.4191C238.709 56.034 239.962 56.5464 241.422 56.9564C242.905 57.3406 244.262 57.5328 245.491 57.5328C246.385 57.5328 247.039 57.4686 247.447 57.3406C247.858 57.2125 248.062 56.9564 248.062 56.572C248.062 56.2645 247.922 56.0211 247.641 55.8418C247.385 55.6369 246.897 55.4318 246.181 55.2269C245.491 54.9964 244.685 54.753 243.763 54.4967C242.202 54.0355 240.975 53.5616 240.078 53.0748C239.182 52.5879 238.518 51.9731 238.081 51.2301C237.647 50.4872 237.43 49.5521 237.43 48.4248C237.43 46.4263 238.21 44.9404 239.771 43.9668C241.357 42.9675 243.52 42.468 246.259 42.468C247.589 42.468 248.984 42.609 250.442 42.8907C251.927 43.1726 253.039 43.5441 253.782 44.0053V48.886C253.015 48.3736 251.99 47.9507 250.711 47.6177C249.457 47.2846 248.279 47.1182 247.179 47.1182C246.31 47.1182 245.631 47.2077 245.145 47.387C244.659 47.5409 244.416 47.8226 244.416 48.2326C244.416 48.617 244.659 48.9116 245.145 49.1165C245.631 49.3214 246.501 49.5777 247.755 49.885C248.574 50.0901 248.92 50.1797 248.791 50.154C250.429 50.5896 251.695 51.0765 252.591 51.6145C253.488 52.1526 254.113 52.793 254.472 53.536C254.857 54.2533 255.049 55.1757 255.049 56.303C255.049 58.0708 254.281 59.4798 252.746 60.5303C251.235 61.5552 249.034 62.0676 246.143 62.0676Z" fill="#F1F1F1"/>
<path d="M265.135 62.0676C262.602 62.0676 260.696 61.363 259.417 59.954C258.163 58.5447 257.536 56.6874 257.536 54.3816V43.0443H264.292V53.6128C264.292 55.7394 265.251 56.8025 267.17 56.8025C268.041 56.8025 268.834 56.5977 269.55 56.1877C270.266 55.7777 270.855 55.1757 271.315 54.3816V43.0443H278.071V61.4911H271.547V59.4928C270.754 60.3381 269.793 60.9786 268.667 61.4142C267.542 61.8498 266.364 62.0676 265.135 62.0676Z" fill="#F1F1F1"/>
<path d="M281.53 43.0443H287.788V45.0429C288.555 44.2231 289.439 43.5953 290.436 43.1597C291.434 42.6985 292.496 42.468 293.622 42.468C295.004 42.468 296.105 42.6729 296.924 43.0829C297.769 43.4929 298.446 44.1077 298.958 44.9275C299.725 44.159 300.66 43.5568 301.761 43.1214C302.861 42.6858 303.975 42.468 305.099 42.468C307.53 42.468 309.259 43.0958 310.282 44.3511C311.305 45.5809 311.817 47.3614 311.817 49.6928V61.4911H305.368V50.6538C305.368 49.6289 305.176 48.886 304.792 48.4248C304.409 47.9636 303.768 47.7331 302.874 47.7331C301.722 47.7331 300.787 48.1428 300.071 48.9628C300.097 49.3982 300.11 50.0645 300.11 50.9611V61.4911H293.661V50.3848C293.661 49.4367 293.495 48.7577 293.162 48.3479C292.829 47.938 292.24 47.7331 291.397 47.7331C290.09 47.7331 288.966 48.4631 288.018 49.9236V61.4911H281.53V43.0443Z" fill="#F1F1F1"/>
</svg>
